<?xml version="1.0" encoding="UTF-8" standalone="no"?>
<svg
   width="7168"
   height="1024"
   viewBox="0 0 7168 1024"
   fill="none"
   version="1.1"
   id="svg30"
   sodipodi:docname="logo_dark_mode.svg"
   inkscape:version="1.4.2 (ebf0e940, 2025-05-08)"
   xmlns:inkscape="http://www.inkscape.org/namespaces/inkscape"
   xmlns:sodipodi="http://sodipodi.sourceforge.net/DTD/sodipodi-0.dtd"
   xmlns="http://www.w3.org/2000/svg"
   xmlns:svg="http://www.w3.org/2000/svg">
  <sodipodi:namedview
     id="namedview30"
     pagecolor="#ffffff"
     bordercolor="#000000"
     borderopacity="0.25"
     inkscape:showpageshadow="2"
     inkscape:pageopacity="0.0"
     inkscape:pagecheckerboard="0"
     inkscape:deskcolor="#d1d1d1"
     inkscape:zoom="0.13898997"
     inkscape:cx="3475.0709"
     inkscape:cy="1151.1622"
     inkscape:window-width="1728"
     inkscape:window-height="965"
     inkscape:window-x="0"
     inkscape:window-y="38"
     inkscape:window-maximized="0"
     inkscape:current-layer="svg30" />
  <rect
     width="1024"
     height="1024"
     rx="120"
     fill="url(#paint0_linear_20_339)"
     id="rect1"
     x="0"
     y="0"
     style="fill:url(#paint0_linear_20_339)" />
  <rect
     x="543.62402"
     y="545.41101"
     width="280.535"
     height="278.74899"
     rx="5"
     fill="#ffffff"
     id="rect2" />
  <rect
     x="821.53601"
     y="589.82098"
     width="52.463799"
     height="69.951698"
     rx="2"
     fill="#ffffff"
     id="rect3" />
  <rect
     x="821.53601"
     y="709.61298"
     width="52.463799"
     height="69.951698"
     rx="2"
     fill="#ffffff"
     id="rect4" />
  <rect
     x="-873.125"
     y="588.07202"
     width="52.463799"
     height="69.951698"
     rx="2"
     transform="rotate(-90)"
     fill="#ffffff"
     id="rect5" />
  <rect
     x="-873.125"
     y="709.61401"
     width="52.463799"
     height="69.951698"
     rx="2"
     transform="rotate(-90)"
     fill="#ffffff"
     id="rect6" />
  <path
     d="M 641.143,744.517 H 772.06 v 41.812 H 597.059 V 545.411 h 44.084 z"
     fill="#5130ab"
     id="path6" />
  <rect
     width="280.535"
     height="278.74899"
     rx="5"
     transform="scale(-1,1)"
     fill="#ffffff"
     id="rect7"
     x="-479.50201"
     y="545.41101" />
  <path
     d="M 381.982,744.517 H 251.066 v 41.812 h 175 V 545.411 h -44.084 z"
     fill="#5130ab"
     id="path7" />
  <rect
     x="150"
     y="589.82098"
     width="52.463799"
     height="69.951698"
     rx="2"
     fill="#ffffff"
     id="rect8" />
  <rect
     x="150"
     y="708.73901"
     width="52.463799"
     height="69.951698"
     rx="2"
     fill="#ffffff"
     id="rect9" />
  <rect
     x="-873.125"
     y="243.56"
     width="52.463799"
     height="69.951698"
     rx="2"
     transform="rotate(-90)"
     fill="#ffffff"
     id="rect10" />
  <rect
     x="-873.125"
     y="365.10101"
     width="52.463799"
     height="69.951698"
     rx="2"
     transform="rotate(-90)"
     fill="#ffffff"
     id="rect11" />
  <rect
     x="543.62402"
     y="198.966"
     width="280.535"
     height="278.74899"
     rx="5"
     fill="#ffffff"
     id="rect12" />
  <path
     d="m 719.293,449.203 -56.775,-86.28 h -21.374 v 86.28 H 597.06 V 226.841 h 83.412 c 17.313,0 32.061,3.079 44.245,9.238 12.183,5.947 21.267,14.124 27.252,24.53 6.198,10.194 9.297,21.663 9.297,34.406 0,14.654 -4.274,27.928 -12.824,39.821 -8.55,11.681 -21.267,19.751 -38.153,24.211 l 61.104,90.156 z M 641.144,329.739 h 38.073 c 12.183,0 20.919,-3.504 26.904,-9.239 5.985,-5.946 8.977,-14.123 8.977,-24.53 0,-10.194 -2.992,-18.052 -8.977,-23.574 -5.985,-5.734 -15.069,-8.601 -27.252,-8.601 h -37.725 z"
     fill="#5130ab"
     id="path12" />
  <path
     d="m 543.624,363.561 v -33.185 h 121.565 v 33.185 z"
     fill="#5130ab"
     id="path13" />
  <path
     d="m 597.06,447.185 h 44.084 v 30.53 H 597.06 Z"
     fill="#5130ab"
     id="path14" />
  <rect
     x="821.53601"
     y="243.56"
     width="52.463799"
     height="69.951698"
     rx="2"
     fill="#ffffff"
     id="rect14" />
  <rect
     x="821.53601"
     y="363.353"
     width="52.463799"
     height="69.951698"
     rx="2"
     fill="#ffffff"
     id="rect15" />
  <path
     d="m 590.072,202.464 c -1.104,0 -2,-0.896 -2,-2 V 152 c 0,-1.104 0.896,-2 2,-2 h 65.952 c 1.105,0 2,0.896 2,2 v 48.464 c 0,1.104 -0.895,2 -2,2 z"
     fill="#ffffff"
     id="path15" />
  <rect
     x="-202.46402"
     y="710.48798"
     width="52.463799"
     height="69.951698"
     rx="2"
     transform="rotate(-90)"
     fill="#ffffff"
     id="rect16" />
  <rect
     width="280.535"
     height="278.74899"
     rx="5"
     transform="scale(-1,1)"
     fill="#ffffff"
     id="rect17"
     x="-479.50201"
     y="198.966" />
  <path
     d="m 303.833,449.203 56.775,-86.28 h 21.374 v 86.28 h 44.084 V 226.841 h -83.412 c -17.314,0 -32.062,3.079 -44.245,9.238 -12.183,5.947 -21.267,14.124 -27.252,24.53 -6.198,10.194 -9.298,21.663 -9.298,34.406 0,14.654 4.275,27.928 12.825,39.821 8.549,11.681 21.267,19.751 38.153,24.211 l -61.104,90.156 z m 78.149,-119.464 h -38.073 c -12.183,0 -20.92,-3.504 -26.904,-9.239 -5.985,-5.946 -8.978,-14.123 -8.978,-24.53 0,-10.194 2.993,-18.052 8.978,-23.574 5.984,-5.734 15.068,-8.601 27.252,-8.601 h 37.725 z"
     fill="#5130ab"
     id="path17" />
  <path
     d="M 479.501,363.561 V 330.376 H 357.936 v 33.185 z"
     fill="#5130ab"
     id="path18" />
  <path
     d="m 426.066,429.93 h -44.084 v 47.785 h 44.084 z"
     fill="#5130ab"
     id="path19" />
  <rect
     x="150"
     y="243.56"
     width="52.463799"
     height="69.951698"
     rx="2"
     fill="#ffffff"
     id="rect19" />
  <rect
     x="150"
     y="363.353"
     width="52.463799"
     height="69.951698"
     rx="2"
     fill="#ffffff"
     id="rect20" />
  <rect
     x="-202.464"
     y="243.56"
     width="52.463799"
     height="69.951698"
     rx="2"
     transform="rotate(-90)"
     fill="#ffffff"
     id="rect21" />
  <rect
     x="-202.46399"
     y="365.10101"
     width="52.463799"
     height="69.951698"
     rx="2"
     transform="rotate(-90)"
     fill="#ffffff"
     id="rect22" />
  <rect
     x="479.50201"
     y="317.103"
     width="64.122398"
     height="61.0592"
     fill="#ffffff"
     id="rect23" />
  <rect
     x="479.50201"
     y="330.37701"
     width="64.122398"
     height="33.184399"
     fill="#5130ab"
     id="rect24" />
  <rect
     x="372.63101"
     y="477.715"
     width="62.786499"
     height="67.696098"
     fill="#ffffff"
     id="rect25" />
  <rect
     x="243.56"
     y="477.715"
     width="62.786499"
     height="67.696098"
     fill="#ffffff"
     id="rect26" />
  <path
     d="m 426.066,477.715 h -44.084 v 67.696 h 44.084 z"
     fill="#5130ab"
     id="path26" />
  <rect
     x="587.70801"
     y="477.715"
     width="62.786499"
     height="67.696098"
     fill="#ffffff"
     id="rect27" />
  <rect
     x="716.60901"
     y="477.715"
     width="62.786499"
     height="67.696098"
     fill="#ffffff"
     id="rect28" />
  <path
     d="m 597.059,477.715 h 44.084 v 67.696 h -44.084 z"
     fill="#5130ab"
     id="path28" />
  <defs
     id="defs30">
    <rect
       x="1065.6685"
       y="135.13911"
       width="3023.2549"
       height="749.05676"
       id="rect13" />
    <linearGradient
       id="paint0_linear_20_339"
       x1="512"
       y1="0"
       x2="512"
       y2="1024"
       gradientUnits="userSpaceOnUse">
      <stop
         stop-color="#5130AB"
         id="stop29" />
      <stop
         offset="1"
         stop-color="#3F3261"
         id="stop30" />
    </linearGradient>
  </defs>
  <text
     xml:space="preserve"
     id="text1"
     style="text-align:start;writing-mode:lr-tb;direction:ltr;white-space:pre;shape-inside:url(#rect13);display:inline;fill:#000000" />
  <text
     xml:space="preserve"
     style="font-style:normal;font-variant:normal;font-weight:bold;font-stretch:normal;font-size:682.667px;font-family:Helvetica;-inkscape-font-specification:'Helvetica, Bold';font-variant-ligatures:normal;font-variant-caps:normal;font-variant-numeric:normal;font-variant-east-asian:normal;text-align:start;writing-mode:lr-tb;direction:ltr;text-anchor:start;white-space:pre;inline-size:4724.19;display:inline;fill:#ffffff"
     x="1301.1965"
     y="312.75049"
     id="text14"
     transform="matrix(1.4066126,0,0,1.4028281,-674.53249,364.40785)"><tspan
       x="1301.1965"
       y="312.75049"
       id="tspan2"><tspan
         dx="0 0 0 0 0 0 0 0.00015258789"
         id="tspan1">runlocal_hub</tspan></tspan></text>
</svg>
